# xmcd CD database file
#
# Track frame offsets:
#	183
#	17270
#	42828
#	54128
#	69448
#	86728
#	111538
#	128743
#	149725
#
# Disc length: 2309 seconds
#
# Revision: 13
# Processed by: cddbd v1.5.2PL0 Copyright (c) Steve Scherf et al.
# Submitted via: CDex 1.70beta2
#
DISCID=77090309
DTITLE=Neil Young and Crazy Horse - Rust Never Sleeps
DYEAR=1979
DGENRE=Folk,Singer/Songwriter
TTITLE0=My My, Hey Hey (Out Of The Blue)
TTITLE1=Thrasher
TTITLE2=Ride My Llama
TTITLE3=Pocahontas
TTITLE4=Sail Away
TTITLE5=Powderfinger
TTITLE6=Welfare Mothers
TTITLE7=Sedan Delivery
TTITLE8=Hey Hey, My My (Into The Black)
EXTD=YEAR: 1979
EXTT0=
EXTT1=
EXTT2=
EXTT3=
EXTT4=
EXTT5=
EXTT6=
EXTT7=
EXTT8=
PLAYORDER=
